<?xml version="1.0" encoding="UTF-8"?>
<svg version="1.1" xmlns="http://www.w3.org/2000/svg" width="72" height="72">
<path d="M0 0 C23.76 0 47.52 0 72 0 C72 23.76 72 47.52 72 72 C48.24 72 24.48 72 0 72 C0 48.24 0 24.48 0 0 Z " fill="#FDF9F6" transform="translate(0,0)"/>
<path d="M0 0 C1.4391134 0.28359887 2.87625518 0.57721399 4.3125 0.875 C5.11300781 1.03742187 5.91351563 1.19984375 6.73828125 1.3671875 C9 2 9 2 12 4 C12.99 3.34 13.98 2.68 15 2 C18.19601935 3.49926958 19.82299073 4.31573528 22 7 C23.02168569 11.65965014 22.8149893 16.30802315 22.68359375 21.05078125 C22.67052782 22.43366485 22.66056833 23.816581 22.65357971 25.19950867 C22.62692997 28.82864823 22.55824194 32.45580725 22.48065186 36.08416748 C22.40887142 39.79086022 22.37665278 43.49788456 22.34179688 47.20507812 C22.27057448 54.47179765 22.13359073 61.73308865 22 69 C12.1 69 2.2 69 -8 69 C-8 58 -8 58 -7 57 C-5.15108054 56.76636119 -3.29511969 56.58696365 -1.4375 56.4375 C-0.42558594 56.35371094 0.58632813 56.26992188 1.62890625 56.18359375 C2.41136719 56.12300781 3.19382813 56.06242187 4 56 C4 55.34 4 54.68 4 54 C6.97 53.505 6.97 53.505 10 53 C10.33 51.02 10.66 49.04 11 47 C9.02 46.34 7.04 45.68 5 45 C5 45.66 5 46.32 5 47 C4.34 47 3.68 47 3 47 C3 46.01 3 45.02 3 44 C1.02 44 -0.96 44 -3 44 C-3.185625 44.928125 -3.185625 44.928125 -3.375 45.875 C-4 48 -4 48 -6 50 C-6.2475 51.5159375 -6.2475 51.5159375 -6.5 53.0625 C-6.665 54.031875 -6.83 55.00125 -7 56 C-7.99 56.495 -7.99 56.495 -9 57 C-9.65555119 59.52733235 -9.65555119 59.52733235 -10 62 C-10.99 62 -11.98 62 -13 62 C-13 60.02 -13 58.04 -13 56 C-13.99 56 -14.98 56 -16 56 C-16 54.35 -16 52.7 -16 51 C-19.52381687 53.54604597 -19.52381687 53.54604597 -22 57 C-24.64 57 -27.28 57 -30 57 C-29.67 58.32 -29.34 59.64 -29 61 C-28.34 60.01 -27.68 59.02 -27 58 C-27 59.32 -27 60.64 -27 62 C-26.34 62 -25.68 62 -25 62 C-25.33 62.99 -25.66 63.98 -26 65 C-32.32535196 65.95477011 -38.60118895 66.38235426 -45 66 C-46 65 -46 65 -46.0625 62.4375 C-46.041875 61.633125 -46.02125 60.82875 -46 60 C-44.68 60 -43.36 60 -42 60 C-41.7763932 57.0745356 -41.7763932 57.0745356 -43 55 C-43.66 54.67 -44.32 54.34 -45 54 C-43.515 53.505 -43.515 53.505 -42 53 C-42.99 52.67 -43.98 52.34 -45 52 C-45 51.34 -45 50.68 -45 50 C-46.32 49.67 -47.64 49.34 -49 49 C-47.02 49 -45.04 49 -43 49 C-42.60361328 48.12601563 -42.60361328 48.12601563 -42.19921875 47.234375 C-40.96021868 44.92587975 -39.52764591 43.2218067 -37.8125 41.25 C-36.01788332 38.93829038 -35.04695328 37.64205877 -34.83203125 34.703125 C-35.11442055 32.26332067 -35.11442055 32.26332067 -36 29 C-33.03 29.33 -30.06 29.66 -27 30 C-27.66 31.32 -28.32 32.64 -29 34 C-29.66 34 -30.32 34 -31 34 C-31.433125 35.11375 -31.433125 35.11375 -31.875 36.25 C-32.82302644 38.56739797 -33.84845911 40.77917115 -35 43 C-34.34 43.66 -33.68 44.32 -33 45 C-34.32 45 -35.64 45 -37 45 C-37.16918268 46.58306647 -37.33523936 48.16646719 -37.5 49.75 C-37.5928125 50.63171875 -37.685625 51.5134375 -37.78125 52.421875 C-38.05636313 55.23304835 -38.05636313 55.23304835 -38 59 C-37.01 59 -36.02 59 -35 59 C-34.34 58.01 -33.68 57.02 -33 56 C-32.34 56 -31.68 56 -31 56 C-31 55.34 -31 54.68 -31 54 C-32.32 53.34 -33.64 52.68 -35 52 C-33.875 50.5 -33.875 50.5 -32 49 C-29 48.8125 -29 48.8125 -26 49 C-25.01 49 -24.02 49 -23 49 C-21.515 49.495 -21.515 49.495 -20 50 C-19.566875 49.030625 -19.13375 48.06125 -18.6875 47.0625 C-17 44 -17 44 -14 43 C-13.67 43.33 -13.34 43.66 -13 44 C-13 43.01 -13 42.02 -13 41 C-12.01 40.67 -11.02 40.34 -10 40 C-9.95101562 38.98679688 -9.90203125 37.97359375 -9.8515625 36.9296875 C-9.77647436 35.57810089 -9.70092919 34.22653962 -9.625 32.875 C-9.57859375 31.87726562 -9.57859375 31.87726562 -9.53125 30.859375 C-9.27926655 26.57565639 -8.43179015 23.02449123 -7 19 C-6.69876602 17.21319329 -6.42715594 15.42110277 -6.1875 13.625 C-5.2748581 8.20108758 -3.27852948 4.36720148 0 0 Z " fill="#E9B5AA" transform="translate(50,3)"/>
<path d="M0 0 C1.32 0 2.64 0 4 0 C5.2590713 3.77721389 6.12417814 6.68155335 6.11352539 10.6550293 C6.11344986 11.59577805 6.11337433 12.53652679 6.11329651 13.50578308 C6.10813522 14.51836685 6.10297394 15.53095062 6.09765625 16.57421875 C6.0962413 17.61318802 6.09482635 18.65215729 6.09336853 19.72261047 C6.08776656 23.04426948 6.07521372 26.36586133 6.0625 29.6875 C6.05748525 31.93815007 6.0529223 34.18880119 6.04882812 36.43945312 C6.03864696 41.95968217 6.01907183 47.47976582 6 53 C-3.9 53 -13.8 53 -24 53 C-24 42 -24 42 -23 41 C-21.15108054 40.76636119 -19.29511969 40.58696365 -17.4375 40.4375 C-16.42558594 40.35371094 -15.41367187 40.26992188 -14.37109375 40.18359375 C-13.58863281 40.12300781 -12.80617188 40.06242187 -12 40 C-12 39.34 -12 38.68 -12 38 C-9.03 37.505 -9.03 37.505 -6 37 C-5.67 35.02 -5.34 33.04 -5 31 C-6.98 30.34 -8.96 29.68 -11 29 C-11 29.66 -11 30.32 -11 31 C-11.66 31 -12.32 31 -13 31 C-13 30.01 -13 29.02 -13 28 C-13.721875 28.103125 -14.44375 28.20625 -15.1875 28.3125 C-18 28 -18 28 -20.875 25.75 C-23 23 -23 23 -22.8125 20.6875 C-22.544375 20.130625 -22.27625 19.57375 -22 19 C-20.02 19.33 -18.04 19.66 -16 20 C-15.67 21.65 -15.34 23.3 -15 25 C-9.09910837 22.68592485 -4.62208357 20.43312536 -1 15 C-0.83300768 11.87478167 -0.83300768 11.87478167 -1 9 C-2.65 9 -4.3 9 -6 9 C-6 8.67 -6 8.34 -6 8 C-4.35 8 -2.7 8 -1 8 C-2.12534105 6.64381501 -2.12534105 6.64381501 -5.0625 6.9375 C-6.5165625 6.9684375 -6.5165625 6.9684375 -8 7 C-7.34 6.01 -6.68 5.02 -6 4 C-2.875 3.8125 -2.875 3.8125 0 4 C0 2.68 0 1.36 0 0 Z " fill="#B98779" transform="translate(66,19)"/>
<path d="M0 0 C0.33 1.32 0.66 2.64 1 4 C1.639375 3.814375 2.27875 3.62875 2.9375 3.4375 C3.618125 3.293125 4.29875 3.14875 5 3 C6 4 6 4 6.1875 6.1875 C5.97397604 9.39035942 5.11554182 12.00198135 4 15 C4.66 15.33 5.32 15.66 6 16 C5.34 16 4.68 16 4 16 C4 19.3 4 22.6 4 26 C2.68 26 1.36 26 0 26 C0.33 27.32 0.66 28.64 1 30 C0.236875 30.061875 -0.52625 30.12375 -1.3125 30.1875 C-4.23051809 30.76935262 -4.23051809 30.76935262 -5.8125 33.5625 C-6.204375 34.366875 -6.59625 35.17125 -7 36 C-8.65 35.34 -10.3 34.68 -12 34 C-12 34.33 -12 34.66 -12 35 C-12.94875 34.938125 -13.8975 34.87625 -14.875 34.8125 C-16.421875 34.9053125 -16.421875 34.9053125 -18 35 C-18.66 35.99 -19.32 36.98 -20 38 C-19.34 38.33 -18.68 38.66 -18 39 C-18 39.66 -18 40.32 -18 41 C-18.99 41.495 -18.99 41.495 -20 42 C-20.65555119 44.52733235 -20.65555119 44.52733235 -21 47 C-21.99 46.01 -22.98 45.02 -24 44 C-24.66 44.99 -25.32 45.98 -26 47 C-26 42.38 -26 37.76 -26 33 C-25.34 33 -24.68 33 -24 33 C-23.88398438 32.27039062 -23.76796875 31.54078125 -23.6484375 30.7890625 C-22.98896699 27.95254478 -22.05624382 25.89919365 -20.625 23.375 C-20.20476563 22.61960937 -19.78453125 21.86421875 -19.3515625 21.0859375 C-18.06623024 19.10221661 -16.73546252 17.59337787 -15 16 C-15.66 16 -16.32 16 -17 16 C-17 15.34 -17 14.68 -17 14 C-9.25 14.75 -9.25 14.75 -7 17 C-6.34 16.67 -5.68 16.34 -5 16 C-4.67 16.33 -4.34 16.66 -4 17 C-4 16.01 -4 15.02 -4 14 C-3.34 13.67 -2.68 13.34 -2 13 C-2.33 12.01 -2.66 11.02 -3 10 C-5.01508358 9.26676204 -5.01508358 9.26676204 -7 9 C-6.34 9 -5.68 9 -5 9 C-5 6.36 -5 3.72 -5 1 C-3.5393715 3.64738916 -3 4.89448334 -3 8 C-2.34 8 -1.68 8 -1 8 C-0.67 5.36 -0.34 2.72 0 0 Z " fill="#EDCDD0" transform="translate(37,18)"/>
<path d="M0 0 C0 0.99 0 1.98 0 3 C0.66 3 1.32 3 2 3 C2 2.34 2 1.68 2 1 C4.375 0.875 4.375 0.875 7 1 C7.66 1.66 8.32 2.32 9 3 C8.76306451 5.4483334 8.16353221 6.78195705 6.6875 8.75 C5 10 5 10 1 10 C1 10.66 1 11.32 1 12 C-2.63 12.66 -6.26 13.32 -10 14 C-10.33 17.63 -10.66 21.26 -11 25 C-17.27 25 -23.54 25 -30 25 C-29 20 -29 20 -28 18 C-29.32 18 -30.64 18 -32 18 C-32.33 18 -32.66 18 -33 18 C-33 16.35 -33 14.7 -33 13 C-30.36 13 -27.72 13 -25 13 C-24.62875 12.071875 -24.62875 12.071875 -24.25 11.125 C-22.79371361 8.64931313 -21.62187494 8.04874998 -19 7 C-19 8.65 -19 10.3 -19 12 C-18.01 12 -17.02 12 -16 12 C-16 13.98 -16 15.96 -16 18 C-15.01 18 -14.02 18 -13 18 C-13 16.35 -13 14.7 -13 13 C-12.01 12.67 -11.02 12.34 -10 12 C-10.061875 11.071875 -10.12375 10.14375 -10.1875 9.1875 C-10 6 -10 6 -8.5625 4.3125 C-8.046875 3.879375 -7.53125 3.44625 -7 3 C-6.67 2.01 -6.34 1.02 -6 0 C-3.50907189 -1.24546405 -2.58919267 -0.7767578 0 0 Z " fill="#E7D5CE" transform="translate(53,47)"/>
<path d="M0 0 C2.97 0.33 5.94 0.66 9 1 C8.34 2.32 7.68 3.64 7 5 C6.34 5 5.68 5 5 5 C4.566875 6.11375 4.566875 6.11375 4.125 7.25 C3.17697356 9.56739797 2.15154089 11.77917115 1 14 C1.66 14.66 2.32 15.32 3 16 C1.68 16 0.36 16 -1 16 C-1.16918268 17.58306647 -1.33523936 19.16646719 -1.5 20.75 C-1.5928125 21.63171875 -1.685625 22.5134375 -1.78125 23.421875 C-2.05636313 26.23304835 -2.05636313 26.23304835 -2 30 C-1.01 30 -0.02 30 1 30 C1.66 29.01 2.32 28.02 3 27 C3.66 27 4.32 27 5 27 C5 26.34 5 25.68 5 25 C3.68 24.34 2.36 23.68 1 23 C2.125 21.5 2.125 21.5 4 20 C7 19.8125 7 19.8125 10 20 C10.99 20 11.98 20 13 20 C13.99 20.33 14.98 20.66 16 21 C16.433125 20.030625 16.86625 19.06125 17.3125 18.0625 C19 15 19 15 22 14 C22 14.66 22 15.32 22 16 C23.32 16.66 24.64 17.32 26 18 C25.67 18.66 25.34 19.32 25 20 C24.34 20 23.68 20 23 20 C23 20.66 23 21.32 23 22 C24.32 22 25.64 22 27 22 C27.495 23.485 27.495 23.485 28 25 C22.25 25.125 22.25 25.125 20 24 C20 23.34 20 22.68 20 22 C16.47618313 24.54604597 16.47618313 24.54604597 14 28 C11.36 28 8.72 28 6 28 C6.33 29.32 6.66 30.64 7 32 C7.66 31.01 8.32 30.02 9 29 C9 30.32 9 31.64 9 33 C9.66 33 10.32 33 11 33 C10.67 33.99 10.34 34.98 10 36 C3.67464804 36.95477011 -2.60118895 37.38235426 -9 37 C-10 36 -10 36 -10.0625 33.4375 C-10.041875 32.633125 -10.02125 31.82875 -10 31 C-8.68 31 -7.36 31 -6 31 C-5.7763932 28.0745356 -5.7763932 28.0745356 -7 26 C-7.66 25.67 -8.32 25.34 -9 25 C-8.01 24.67 -7.02 24.34 -6 24 C-6.99 23.67 -7.98 23.34 -9 23 C-9 22.34 -9 21.68 -9 21 C-10.32 20.67 -11.64 20.34 -13 20 C-11.02 20 -9.04 20 -7 20 C-6.60361328 19.12601563 -6.60361328 19.12601563 -6.19921875 18.234375 C-4.96021868 15.92587975 -3.52764591 14.2218067 -1.8125 12.25 C-0.01788332 9.93829038 0.95304672 8.64205877 1.16796875 5.703125 C0.88557945 3.26332067 0.88557945 3.26332067 0 0 Z " fill="#C0B2BF" transform="translate(14,32)"/>
<path d="M0 0 C1.10859375 0.01804687 2.2171875 0.03609375 3.359375 0.0546875 C6.07329421 0.10147921 8.78676387 0.1732103 11.5 0.25 C11.5 3.55 11.5 6.85 11.5 10.25 C8.86 8.93 6.22 7.61 3.5 6.25 C2.84 6.91 2.18 7.57 1.5 8.25 C0.4790625 7.5384375 0.4790625 7.5384375 -0.5625 6.8125 C-3.91841956 5.0274364 -6.74161481 4.61846914 -10.5 4.25 C-14.36694585 10.05041878 -15.55613723 15.38215645 -16.5 22.25 C-17.28375 22.394375 -18.0675 22.53875 -18.875 22.6875 C-21.46421018 23.12798925 -21.46421018 23.12798925 -23.5 24.25 C-23.5 23.26 -23.5 22.27 -23.5 21.25 C-23.83 22.9 -24.16 24.55 -24.5 26.25 C-25.16 26.25 -25.82 26.25 -26.5 26.25 C-28.60506718 19.43697851 -28.78180975 15.25293389 -25.4453125 8.8671875 C-25.13335937 8.33351563 -24.82140625 7.79984375 -24.5 7.25 C-23.18 7.25 -21.86 7.25 -20.5 7.25 C-20.5 6.26 -20.5 5.27 -20.5 4.25 C-13.56510661 -0.02539544 -8.03309327 -0.24983304 0 0 Z " fill="#F9F6E4" transform="translate(60.5,-0.25)"/>
<path d="M0 0 C1.4391134 0.28359887 2.87625518 0.57721399 4.3125 0.875 C5.11300781 1.03742187 5.91351563 1.19984375 6.73828125 1.3671875 C9 2 9 2 12 4 C12.99 3.34 13.98 2.68 15 2 C19.93264249 4.64248705 19.93264249 4.64248705 22 7 C22.61912129 10.40776842 22.41905531 13.57438913 22 17 C21.67 17 21.34 17 21 17 C21 15.35 21 13.7 21 12 C20.01 12.33 19.02 12.66 18 13 C17.34 11.68 16.68 10.36 16 9 C15.34 9 14.68 9 14 9 C14.33 10.98 14.66 12.96 15 15 C13 12 13 12 12 10 C11.01 11.485 11.01 11.485 10 13 C8.68 12.67 7.36 12.34 6 12 C5.34 13.32 4.68 14.64 4 16 C3.34 15.67 2.68 15.34 2 15 C1.67 16.32 1.34 17.64 1 19 C0.67 18.67 0.34 18.34 0 18 C-0.66 18.66 -1.32 19.32 -2 20 C-2 19.01 -2 18.02 -2 17 C-2.99 17.33 -3.98 17.66 -5 18 C-6.48258646 12.95920605 -5.39641335 9.63354 -2.97265625 5.0625 C-2.00804656 3.35984375 -1.00682365 1.67803942 0 0 Z " fill="#F6C6A9" transform="translate(50,3)"/>
<path d="M0 0 C1.32 0 2.64 0 4 0 C4 2.64 4 5.28 4 8 C2.68 8 1.36 8 0 8 C0.33 9.32 0.66 10.64 1 12 C0.236875 12.061875 -0.52625 12.12375 -1.3125 12.1875 C-4.23051809 12.76935262 -4.23051809 12.76935262 -5.8125 15.5625 C-6.204375 16.366875 -6.59625 17.17125 -7 18 C-8.65 17.34 -10.3 16.68 -12 16 C-12 16.33 -12 16.66 -12 17 C-12.94875 16.938125 -13.8975 16.87625 -14.875 16.8125 C-16.421875 16.9053125 -16.421875 16.9053125 -18 17 C-18.66 17.99 -19.32 18.98 -20 20 C-19.34 20.33 -18.68 20.66 -18 21 C-18 21.66 -18 22.32 -18 23 C-18.66 23.33 -19.32 23.66 -20 24 C-20.65555119 26.52733235 -20.65555119 26.52733235 -21 29 C-21.99 28.01 -22.98 27.02 -24 26 C-24.66 26.99 -25.32 27.98 -26 29 C-26 24.38 -26 19.76 -26 15 C-25.34 15 -24.68 15 -24 15 C-24 14.01 -24 13.02 -24 12 C-23.24074219 11.87882812 -22.48148438 11.75765625 -21.69921875 11.6328125 C-20.70535156 11.46523438 -19.71148437 11.29765625 -18.6875 11.125 C-17.70136719 10.96257813 -16.71523438 10.80015625 -15.69921875 10.6328125 C-12.79940173 10.11914546 -12.79940173 10.11914546 -10 8 C-9.34 8 -8.68 8 -8 8 C-7.731875 7.360625 -7.46375 6.72125 -7.1875 6.0625 C-6 4 -6 4 -3 3 C-2.34 3.66 -1.68 4.32 -1 5 C-0.67 3.35 -0.34 1.7 0 0 Z " fill="#F1E9EA" transform="translate(37,36)"/>
<path d="M0 0 C0.79921875 0.00902344 1.5984375 0.01804687 2.421875 0.02734375 C3.02515625 0.03894531 3.6284375 0.05054687 4.25 0.0625 C4.93005042 3.09242761 5.36709064 5.95196174 5.25 9.0625 C3.125 12.375 3.125 12.375 0.25 15.0625 C-0.575 15.84625 -1.4 16.63 -2.25 17.4375 C-5.04967273 19.25728728 -6.4790575 19.436322 -9.75 19.0625 C-9.811875 18.505625 -9.87375 17.94875 -9.9375 17.375 C-10.65646698 14.79542379 -10.65646698 14.79542379 -13.25 12.5625 C-15.61560612 10.19689388 -16.39178818 9.28640638 -16.75 6.0625 C-13.78 6.5575 -13.78 6.5575 -10.75 7.0625 C-10.5025 6.093125 -10.255 5.12375 -10 4.125 C-9.5875 3.114375 -9.175 2.10375 -8.75 1.0625 C-5.85596937 -0.05449428 -3.0747073 -0.04521628 0 0 Z " fill="#ECC4BE" transform="translate(60.75,24.9375)"/>
<path d="M0 0 C1.32 0 2.64 0 4 0 C5.26672443 3.8001733 6.12046644 6.68781589 6.0625 10.6875 C6.05347656 11.49574219 6.04445313 12.30398437 6.03515625 13.13671875 C6.02355469 13.75160156 6.01195313 14.36648437 6 15 C5.01 15.33 4.02 15.66 3 16 C2.67 17.98 2.34 19.96 2 22 C2.99 21.67 3.98 21.34 5 21 C4.67 23.97 4.34 26.94 4 30 C0.74426786 30 -0.99313252 29.7731945 -4 29 C-6.33094534 28.6503582 -8.66404762 28.31445513 -11 28 C-11 27.34 -11 26.68 -11 26 C-9.02 26 -7.04 26 -5 26 C-5.4021875 24.948125 -5.4021875 24.948125 -5.8125 23.875 C-6.08816372 19.64815629 -3.64605315 18.1623562 -1 15 C-0.58009927 11.74723247 -0.58009927 11.74723247 -1 9 C-2.65 9 -4.3 9 -6 9 C-6 8.67 -6 8.34 -6 8 C-4.35 8 -2.7 8 -1 8 C-2.12534105 6.64381501 -2.12534105 6.64381501 -5.0625 6.9375 C-6.031875 6.958125 -7.00125 6.97875 -8 7 C-7.34 6.01 -6.68 5.02 -6 4 C-2.875 3.8125 -2.875 3.8125 0 4 C0 2.68 0 1.36 0 0 Z " fill="#BB584B" transform="translate(66,19)"/>
<path d="M0 0 C0 4.62 0 9.24 0 14 C-8.91 14 -17.82 14 -27 14 C-25 9 -25 9 -23.125 7.6875 C-21 7 -21 7 -17 7 C-16.67 8.32 -16.34 9.64 -16 11 C-15.67 10.01 -15.34 9.02 -15 8 C-13.68 8 -12.36 8 -11 8 C-9.25 10 -9.25 10 -8 12 C-8 10.35 -8 8.7 -8 7 C-8.66 6.67 -9.32 6.34 -10 6 C-9.6875 4.125 -9.6875 4.125 -9 2 C-6 0 -6 0 0 0 Z " fill="#C6B0BB" transform="translate(72,58)"/>
<path d="M0 0 C0.99 0.66 1.98 1.32 3 2 C2.34 2.66 1.68 3.32 1 4 C1.33 4.33 1.66 4.66 2 5 C2.66 4.34 3.32 3.68 4 3 C3.67 5.31 3.34 7.62 3 10 C1.35 9.67 -0.3 9.34 -2 9 C-1.67 10.65 -1.34 12.3 -1 14 C4.94 14 10.88 14 17 14 C17 15.32 17 16.64 17 18 C9.41 18 1.82 18 -6 18 C-6 13.05 -6 8.1 -6 3 C-4.68 3 -3.36 3 -2 3 C-2 2.34 -2 1.68 -2 1 C-1.34 0.67 -0.68 0.34 0 0 Z " fill="#FCEAEB" transform="translate(6,54)"/>
<path d="M0 0 C0 0.99 0 1.98 0 3 C0.66 3 1.32 3 2 3 C2 2.34 2 1.68 2 1 C4.375 0.875 4.375 0.875 7 1 C7.66 1.66 8.32 2.32 9 3 C8.7640772 5.43786897 8.19182573 6.75336691 6.6875 8.6875 C3.39002192 11.25220517 -0.2013801 11.11577131 -4.25 11.0625 C-5.14203125 11.05347656 -6.0340625 11.04445313 -6.953125 11.03515625 C-7.62859375 11.02355469 -8.3040625 11.01195312 -9 11 C-9.32469403 6.34605219 -8.79790518 3.76641082 -6 0 C-3.50907189 -1.24546405 -2.58919267 -0.7767578 0 0 Z " fill="#FBF4EA" transform="translate(53,47)"/>
<path d="M0 0 C-0.33 2.64 -0.66 5.28 -1 8 C0.98 7.67 2.96 7.34 5 7 C4.67 8.32 4.34 9.64 4 11 C4.66 11.33 5.32 11.66 6 12 C4.68 12 3.36 12 2 12 C2.33 13.32 2.66 14.64 3 16 C-1.84688192 15.21824485 -6.3766367 13.60155722 -11 12 C-11 12.66 -11 13.32 -11 14 C-12.32 14 -13.64 14 -15 14 C-15 13.34 -15 12.68 -15 12 C-15.66 11.67 -16.32 11.34 -17 11 C-14.13301658 7.50586395 -12.15849852 5.71163126 -7.6875 5.1875 C-5.8621875 5.0946875 -5.8621875 5.0946875 -4 5 C-4.33 3.68 -4.66 2.36 -5 1 C-2 0 -2 0 0 0 Z " fill="#F7F4ED" transform="translate(31,20)"/>
<path d="M0 0 C0.33 1.32 0.66 2.64 1 4 C1.639375 3.814375 2.27875 3.62875 2.9375 3.4375 C3.618125 3.293125 4.29875 3.14875 5 3 C6 4 6 4 6.1875 6.1875 C5.97397604 9.39035942 5.11554182 12.00198135 4 15 C4.66 15.33 5.32 15.66 6 16 C5.34 16 4.68 16 4 16 C4 16.66 4 17.32 4 18 C2.68 18 1.36 18 0 18 C0 19.98 0 21.96 0 24 C-1.31618998 23.21448343 -2.62785228 22.4213763 -3.9375 21.625 C-4.66839844 21.18414062 -5.39929688 20.74328125 -6.15234375 20.2890625 C-8 19 -8 19 -9 17 C-7.0625 16.4375 -7.0625 16.4375 -5 16 C-4.67 16.33 -4.34 16.66 -4 17 C-4 16.01 -4 15.02 -4 14 C-3.34 13.67 -2.68 13.34 -2 13 C-2.33 12.01 -2.66 11.02 -3 10 C-5.01508358 9.26676204 -5.01508358 9.26676204 -7 9 C-6.34 9 -5.68 9 -5 9 C-5 6.36 -5 3.72 -5 1 C-3.5393715 3.64738916 -3 4.89448334 -3 8 C-2.34 8 -1.68 8 -1 8 C-0.67 5.36 -0.34 2.72 0 0 Z " fill="#EFDDC6" transform="translate(37,18)"/>
<path d="M0 0 C0.99 0.66 1.98 1.32 3 2 C3 1.34 3 0.68 3 0 C3.66 0 4.32 0 5 0 C6 1 7 2 8 3 C8.66 3 9.32 3 10 3 C10.33 6.3 10.66 9.6 11 13 C10.01 12.34 9.02 11.68 8 11 C8.33 9.68 8.66 8.36 9 7 C8.01 7.33 7.02 7.66 6 8 C5.67 8.99 5.34 9.98 5 11 C1.6875 12.125 1.6875 12.125 -2 13 C-2.804375 13.20625 -3.60875 13.4125 -4.4375 13.625 C-4.953125 13.74875 -5.46875 13.8725 -6 14 C-6.33 12.35 -6.66 10.7 -7 9 C-7.66 10.32 -8.32 11.64 -9 13 C-9 10.69 -9 8.38 -9 6 C-8.34 6 -7.68 6 -7 6 C-6.34 4.68 -5.68 3.36 -5 2 C-3.68 2.66 -2.36 3.32 -1 4 C-0.67 2.68 -0.34 1.36 0 0 Z " fill="#EDBFAF" transform="translate(61,12)"/>
<path d="M0 0 C2.97 0.495 2.97 0.495 6 1 C6.33 2.65 6.66 4.3 7 6 C8.093125 5.505 9.18625 5.01 10.3125 4.5 C14 3 14 3 17 3 C17 4.32 17 5.64 17 7 C15.02 7 13.04 7 11 7 C11 7.66 11 8.32 11 9 C12.45823212 9.0270043 13.91660675 9.04639787 15.375 9.0625 C16.59316406 9.07990234 16.59316406 9.07990234 17.8359375 9.09765625 C20.04937142 9.14466334 20.04937142 9.14466334 22 8 C22.33 8.99 22.66 9.98 23 11 C23.66 11.66 24.32 12.32 25 13 C24.34 13.66 23.68 14.32 23 15 C21.68 15 20.36 15 19 15 C19 15.99 19 16.98 19 18 C18.01 18 17.02 18 16 18 C16.33 16.02 16.66 14.04 17 12 C15.02 11.34 13.04 10.68 11 10 C11 10.66 11 11.32 11 12 C10.34 12 9.68 12 9 12 C9 11.01 9 10.02 9 9 C8.278125 9.103125 7.55625 9.20625 6.8125 9.3125 C4 9 4 9 1.125 6.75 C-1 4 -1 4 -0.8125 1.6875 C-0.4103125 0.8521875 -0.4103125 0.8521875 0 0 Z " fill="#C19398" transform="translate(44,38)"/>
<path d="M0 0 C2.97 0.33 5.94 0.66 9 1 C8.34 2.32 7.68 3.64 7 5 C6.34 5 5.68 5 5 5 C4.566875 6.11375 4.566875 6.11375 4.125 7.25 C3.17697356 9.56739797 2.15154089 11.77917115 1 14 C1.66 14.66 2.32 15.32 3 16 C1.68 16 0.36 16 -1 16 C-1.06058594 16.64066406 -1.12117187 17.28132813 -1.18359375 17.94140625 C-1.67209412 22.98423313 -2.23779286 27.9912102 -3 33 C-3.309375 32.360625 -3.61875 31.72125 -3.9375 31.0625 C-4.8345163 29.06389179 -4.8345163 29.06389179 -6 28 C-6.33 27.34 -6.66 26.68 -7 26 C-7.66 25.67 -8.32 25.34 -9 25 C-8.01 24.67 -7.02 24.34 -6 24 C-6.99 23.67 -7.98 23.34 -9 23 C-9 22.34 -9 21.68 -9 21 C-10.32 20.67 -11.64 20.34 -13 20 C-11.02 20 -9.04 20 -7 20 C-6.60361328 19.12601563 -6.60361328 19.12601563 -6.19921875 18.234375 C-4.96021868 15.92587975 -3.52764591 14.2218067 -1.8125 12.25 C-0.01788332 9.93829038 0.95304672 8.64205877 1.16796875 5.703125 C0.88557945 3.26332067 0.88557945 3.26332067 0 0 Z " fill="#EFCDC6" transform="translate(14,32)"/>
<path d="M0 0 C0.66 0 1.32 0 2 0 C2 0.66 2 1.32 2 2 C3.32 2.33 4.64 2.66 6 3 C6 4.32 6 5.64 6 7 C5.34 7 4.68 7 4 7 C4 6.01 4 5.02 4 4 C3.34 4 2.68 4 2 4 C2 4.99 2 5.98 2 7 C1.38511719 7.08636719 0.77023438 7.17273438 0.13671875 7.26171875 C-5.18186069 8.02408429 -5.18186069 8.02408429 -8.875 11.625 C-9.431875 12.800625 -9.431875 12.800625 -10 14 C-10.99 14 -11.98 14 -13 14 C-13.02687279 12.18757948 -13.04633715 10.37504767 -13.0625 8.5625 C-13.07410156 7.55316406 -13.08570313 6.54382813 -13.09765625 5.50390625 C-13 3 -13 3 -12 2 C-10.14712498 1.92773498 -8.29166122 1.9161878 -6.4375 1.9375 C-5.42558594 1.94652344 -4.41367187 1.95554688 -3.37109375 1.96484375 C-2.19740234 1.98224609 -2.19740234 1.98224609 -1 2 C-0.67 2.99 -0.34 3.98 0 5 C0 3.35 0 1.7 0 0 Z " fill="#7B696C" transform="translate(55,58)"/>
<path d="M0 0 C0.99 0 1.98 0 3 0 C3.66 1.32 4.32 2.64 5 4 C5.66 3.01 6.32 2.02 7 1 C7 2.32 7 3.64 7 5 C7.66 5 8.32 5 9 5 C8.67 5.99 8.34 6.98 8 8 C1.67464804 8.95477011 -4.60118895 9.38235426 -11 9 C-12 8 -12 8 -12.0625 5.4375 C-12.041875 4.633125 -12.02125 3.82875 -12 3 C-10.02 3 -8.04 3 -6 3 C-6 3.66 -6 4.32 -6 5 C-5.34 5 -4.68 5 -4 5 C-3.67 3.68 -3.34 2.36 -3 1 C-2.34 1.33 -1.68 1.66 -1 2 C-0.67 1.34 -0.34 0.68 0 0 Z " fill="#E3C2CA" transform="translate(16,60)"/>
<path d="M0 0 C1.65 0.99 3.3 1.98 5 3 C3.25 8.75 3.25 8.75 1 11 C0.835 12.010625 0.67 13.02125 0.5 14.0625 C0.335 15.031875 0.17 16.00125 0 17 C-0.66 17.33 -1.32 17.66 -2 18 C-2.65555119 20.52733235 -2.65555119 20.52733235 -3 23 C-3.99 23 -4.98 23 -6 23 C-6 21.02 -6 19.04 -6 17 C-6.99 17 -7.98 17 -9 17 C-9 16.01 -9 15.02 -9 14 C-6.69 14 -4.38 14 -2 14 C-2 13.34 -2 12.68 -2 12 C-3.32 12 -4.64 12 -6 12 C-6 11.34 -6 10.68 -6 10 C-5.34 9.67 -4.68 9.34 -4 9 C-4.66 8.34 -5.32 7.68 -6 7 C-2.535 6.505 -2.535 6.505 1 6 C0.34 4.35 -0.32 2.7 -1 1 C-0.67 0.67 -0.34 0.34 0 0 Z " fill="#C3AAA9" transform="translate(43,42)"/>
<path d="M0 0 C2.49361571 1.20381448 4.68143083 2.45428722 7 4 C7.29296875 6.3828125 7.29296875 6.3828125 7.1875 9.125 C7.16042969 10.03507812 7.13335937 10.94515625 7.10546875 11.8828125 C7.07066406 12.58148438 7.03585938 13.28015625 7 14 C6.67 14 6.34 14 6 14 C6 12.35 6 10.7 6 9 C5.01 9.33 4.02 9.66 3 10 C2.34 8.68 1.68 7.36 1 6 C0.34 6 -0.32 6 -1 6 C-0.67 7.98 -0.34 9.96 0 12 C-2 9 -2 9 -3 7 C-3.99 7.66 -4.98 8.32 -6 9 C-6 7.02 -6 5.04 -6 3 C-4.35 3 -2.7 3 -1 3 C-0.67 2.01 -0.34 1.02 0 0 Z " fill="#F4C2A6" transform="translate(65,6)"/>
<path d="M0 0 C0.33 1.98 0.66 3.96 1 6 C1.99 6 2.98 6 4 6 C3.67 7.32 3.34 8.64 3 10 C2.34 9.67 1.68 9.34 1 9 C0.67 10.32 0.34 11.64 0 13 C-0.33 12.67 -0.66 12.34 -1 12 C-1.66 12.66 -2.32 13.32 -3 14 C-3 13.01 -3 12.02 -3 11 C-3.99 11.33 -4.98 11.66 -6 12 C-6.93659101 8.35770162 -7.35080958 5.56999674 -6 2 C-2.19047619 0 -2.19047619 0 0 0 Z " fill="#F5DDC5" transform="translate(51,9)"/>
<path d="M0 0 C5.94 0 11.88 0 18 0 C18 3.3 18 6.6 18 10 C14.535 8.02 14.535 8.02 11 6 C11 5.34 11 4.68 11 4 C7.37 3.01 3.74 2.02 0 1 C0 0.67 0 0.34 0 0 Z " fill="#FDF8F5" transform="translate(54,0)"/>
<path d="M0 0 C0.99 0.66 1.98 1.32 3 2 C2.34 2.66 1.68 3.32 1 4 C1.33 4.33 1.66 4.66 2 5 C2.66 4.34 3.32 3.68 4 3 C3.67 5.31 3.34 7.62 3 10 C1.35 9.67 -0.3 9.34 -2 9 C-2 10.65 -2 12.3 -2 14 C-4 12.4375 -4 12.4375 -6 10 C-6.25 6.25 -6.25 6.25 -6 3 C-4.68 3 -3.36 3 -2 3 C-2 2.34 -2 1.68 -2 1 C-1.34 0.67 -0.68 0.34 0 0 Z " fill="#EBDCE2" transform="translate(6,54)"/>
<path d="M0 0 C0 6.27 0 12.54 0 19 C-3.63 20.98 -7.26 22.96 -11 25 C-11 24.01 -11 23.02 -11 22 C-10.34 22 -9.68 22 -9 22 C-9 21.01 -9 20.02 -9 19 C-8.21625 18.773125 -7.4325 18.54625 -6.625 18.3125 C-3.82313761 17.21743671 -3.82313761 17.21743671 -2.625 14.5625 C-1.73609843 11.90500792 -1.73609843 11.90500792 -3 9 C-3.66 9 -4.32 9 -5 9 C-4.66666667 7.66666667 -4.33333333 6.33333333 -4 5 C-3.855625 4.278125 -3.71125 3.55625 -3.5625 2.8125 C-3.376875 2.214375 -3.19125 1.61625 -3 1 C-1 0 -1 0 0 0 Z " fill="#F2C5B1" transform="translate(72,34)"/>
<path d="M0 0 C0 0.99 0 1.98 0 3 C-0.66 3.66 -1.32 4.32 -2 5 C-1.34 5.33 -0.68 5.66 0 6 C0 6.66 0 7.32 0 8 C-0.99 8.495 -0.99 8.495 -2 9 C-2.65555119 11.52733235 -2.65555119 11.52733235 -3 14 C-3.99 13.01 -4.98 12.02 -6 11 C-6.66 11.99 -7.32 12.98 -8 14 C-8 9.38 -8 4.76 -8 0 C-4.71023192 -1.09658936 -3.28696233 -0.79953138 0 0 Z " fill="#E6DBE1" transform="translate(19,51)"/>
<path d="M0 0 C1.32 0 2.64 0 4 0 C4.1953125 6.0546875 4.1953125 6.0546875 4 8 C3.34 8.66 2.68 9.32 2 10 C2.33 10.99 2.66 11.98 3 13 C1.68 12.67 0.36 12.34 -1 12 C-1 11.01 -1 10.02 -1 9 C-2.65 9 -4.3 9 -6 9 C-6 8.67 -6 8.34 -6 8 C-4.35 8 -2.7 8 -1 8 C-2.12534105 6.64381501 -2.12534105 6.64381501 -5.0625 6.9375 C-6.031875 6.958125 -7.00125 6.97875 -8 7 C-7.34 6.01 -6.68 5.02 -6 4 C-2.875 3.8125 -2.875 3.8125 0 4 C0 2.68 0 1.36 0 0 Z " fill="#C7796E" transform="translate(66,19)"/>
<path d="M0 0 C2.6875 0.3125 2.6875 0.3125 5 1 C2.9009871 6.18579657 -0.13717706 10.15966933 -5 13 C-5.99 12.67 -6.98 12.34 -8 12 C-7.23570339 10.55901389 -6.46327445 9.12233946 -5.6875 7.6875 C-5.25824219 6.88699219 -4.82898438 6.08648437 -4.38671875 5.26171875 C-3.07905908 3.12894424 -1.95900888 1.55088203 0 0 Z " fill="#FAF5F2" transform="translate(22,34)"/>
<path d="M0 0 C1.485 0.99 1.485 0.99 3 2 C3 1.34 3 0.68 3 0 C3.66 0 4.32 0 5 0 C6 1 7 2 8 3 C8.66 3 9.32 3 10 3 C10.33 6.3 10.66 9.6 11 13 C10.01 12.34 9.02 11.68 8 11 C8.33 9.68 8.66 8.36 9 7 C8.01 7.33 7.02 7.66 6 8 C5.67 8.99 5.34 9.98 5 11 C4.34 11 3.68 11 3 11 C2.566875 9.88625 2.566875 9.88625 2.125 8.75 C1.07918522 6.05125691 1.07918522 6.05125691 -0.1875 3.8125 C-0.5896875 2.9153125 -0.5896875 2.9153125 -1 2 C-0.67 1.34 -0.34 0.68 0 0 Z " fill="#E19882" transform="translate(61,12)"/>
<path d="M0 0 C2.125 0.375 2.125 0.375 4 1 C4 1.99 4 2.98 4 4 C4.66 4 5.32 4 6 4 C6 3.34 6 2.68 6 2 C8.375 1.875 8.375 1.875 11 2 C11.66 2.66 12.32 3.32 13 4 C12.76208141 6.45849212 12.136119 7.81202615 10.6875 9.8125 C9 11 9 11 6.8125 10.6875 C6.214375 10.460625 5.61625 10.23375 5 10 C5.99 10 6.98 10 8 10 C7.34 8.68 6.68 7.36 6 6 C5.01 6.33 4.02 6.66 3 7 C3 5.35 3 3.7 3 2 C1.35 2 -0.3 2 -2 2 C-1.34 1.34 -0.68 0.68 0 0 Z " fill="#EBC4BD" transform="translate(49,46)"/>
<path d="M0 0 C1.32 0 2.64 0 4 0 C4 2.64 4 5.28 4 8 C2.68 8 1.36 8 0 8 C0.33 9.32 0.66 10.64 1 12 C-1.375 11.8125 -1.375 11.8125 -4 11 C-5.3125 8.4375 -5.3125 8.4375 -6 6 C-5.34 6 -4.68 6 -4 6 C-3.01 5.67 -2.02 5.34 -1 5 C-0.67 3.35 -0.34 1.7 0 0 Z " fill="#F8EFD9" transform="translate(37,36)"/>
<path d="M0 0 C0.66 0 1.32 0 2 0 C2 0.99 2 1.98 2 3 C1.34 3 0.68 3 0 3 C0 3.66 0 4.32 0 5 C0.66 5.33 1.32 5.66 2 6 C1.67 6.66 1.34 7.32 1 8 C0.34 7.67 -0.32 7.34 -1 7 C-1.33 7.99 -1.66 8.98 -2 10 C-2.33 9.67 -2.66 9.34 -3 9 C-3.66 9.66 -4.32 10.32 -5 11 C-5 9.68 -5 8.36 -5 7 C-5.66 7 -6.32 7 -7 7 C-7 8.32 -7 9.64 -7 11 C-8.66666667 11 -10.33333333 11 -12 11 C-12 9.35 -12 7.7 -12 6 C-9.36 6 -6.72 6 -4 6 C-3.566875 5.071875 -3.566875 5.071875 -3.125 4.125 C-2 2 -2 2 0 0 Z " fill="#F4EEEE" transform="translate(32,54)"/>
<path d="M0 0 C0.33 0.99 0.66 1.98 1 3 C0.67 3.33 0.34 3.66 0 4 C-0.23481693 6.18292774 -0.41363323 8.37203174 -0.5625 10.5625 C-0.64628906 11.76003906 -0.73007813 12.95757812 -0.81640625 14.19140625 C-0.87699219 15.11824219 -0.93757812 16.04507813 -1 17 C-1.309375 16.360625 -1.61875 15.72125 -1.9375 15.0625 C-2.8345163 13.06389179 -2.8345163 13.06389179 -4 12 C-4.33 11.34 -4.66 10.68 -5 10 C-5.66 9.67 -6.32 9.34 -7 9 C-6.01 8.67 -5.02 8.34 -4 8 C-4.99 7.67 -5.98 7.34 -7 7 C-7 6.34 -7 5.68 -7 5 C-8.32 4.67 -9.64 4.34 -11 4 C-5.555 3.01 -5.555 3.01 0 2 C0 1.34 0 0.68 0 0 Z " fill="#C9B7BE" transform="translate(12,48)"/>
<path d="M0 0 C0.144375 0.639375 0.28875 1.27875 0.4375 1.9375 C0.81007181 3.97545146 0.81007181 3.97545146 2 5 C1.71269945 7.33944736 1.38063221 9.6739143 1 12 C-2.3 11.67 -5.6 11.34 -9 11 C-9 10.34 -9 9.68 -9 9 C-7.02 9 -5.04 9 -3 9 C-3.2475 8.2575 -3.495 7.515 -3.75 6.75 C-3.8325 5.8425 -3.915 4.935 -4 4 C-2.0625 1.6875 -2.0625 1.6875 0 0 Z " fill="#AC4B3E" transform="translate(64,36)"/>
<path d="M0 0 C2.875 0.1875 2.875 0.1875 6 1 C7.25 3.5 7.25 3.5 8 6 C8.66 6.33 9.32 6.66 10 7 C10 7.66 10 8.32 10 9 C5.88257146 9.47877076 4.41993683 9.32165374 1.0625 6.75 C-1 4 -1 4 -0.8125 1.6875 C-0.4103125 0.8521875 -0.4103125 0.8521875 0 0 Z " fill="#C46557" transform="translate(44,38)"/>
<path d="M0 0 C-0.33 2.31 -0.66 4.62 -1 7 C-3.97 7 -6.94 7 -10 7 C-8.54054054 2.37837838 -8.54054054 2.37837838 -6.125 0.6875 C-4 0 -4 0 0 0 Z " fill="#E5D4CE" transform="translate(55,65)"/>
<path d="M0 0 C1.54571278 2.31856917 2.79618552 4.50638429 4 7 C4.66 6.67 5.32 6.34 6 6 C5.67 8.97 5.34 11.94 5 15 C3.68 15 2.36 15 1 15 C0.855625 13.783125 0.71125 12.56625 0.5625 11.3125 C0.26389054 8.86736454 -0.10081142 6.53626747 -0.625 4.125 C-1 2 -1 2 0 0 Z " fill="#B6554A" transform="translate(65,34)"/>
<path d="M0 0 C1.0013988 3.00419641 1.51421457 5.87709365 2 9 C0.25 9.6875 0.25 9.6875 -2 10 C-4.1875 8.9375 -4.1875 8.9375 -6 7 C-6.75 3.8125 -6.75 3.8125 -7 1 C-3.535 0.505 -3.535 0.505 0 0 Z " fill="#E7B2AC" transform="translate(64,25)"/>
<path d="M0 0 C0.66 0 1.32 0 2 0 C2 0.66 2 1.32 2 2 C3.32 2.33 4.64 2.66 6 3 C6 4.32 6 5.64 6 7 C5.34 7 4.68 7 4 7 C4 6.01 4 5.02 4 4 C3.34 4 2.68 4 2 4 C2 4.99 2 5.98 2 7 C-0.64 7 -3.28 7 -6 7 C-5.67 5.35 -5.34 3.7 -5 2 C-3.68 2 -2.36 2 -1 2 C-0.67 2.99 -0.34 3.98 0 5 C0 3.35 0 1.7 0 0 Z " fill="#F98605" transform="translate(55,58)"/>
<path d="M0 0 C2.97 0.495 2.97 0.495 6 1 C5.34 3.97 4.68 6.94 4 10 C-3.875 5.25 -3.875 5.25 -5 3 C-3.0625 2.4375 -3.0625 2.4375 -1 2 C-0.67 2.33 -0.34 2.66 0 3 C0 2.01 0 1.02 0 0 Z " fill="#D9B0A9" transform="translate(33,32)"/>
<path d="M0 0 C0.66 0 1.32 0 2 0 C2 4.62 2 9.24 2 14 C0.68 14 -0.64 14 -2 14 C-2.21192221 8.80790596 -1.5912689 4.873261 0 0 Z " fill="#BAABBC" transform="translate(70,58)"/>
<path d="M0 0 C1.32 0.33 2.64 0.66 4 1 C4 1.99 4 2.98 4 4 C4.66 4 5.32 4 6 4 C6 4.99 6 5.98 6 7 C5.34 7 4.68 7 4 7 C4 6.34 4 5.68 4 5 C3.34 5 2.68 5 2 5 C2 5.66 2 6.32 2 7 C2.66 7.66 3.32 8.32 4 9 C2.35 9.33 0.7 9.66 -1 10 C-1 10.66 -1 11.32 -1 12 C-1.66 12 -2.32 12 -3 12 C-2.68950274 10.56206608 -2.3765224 9.1246682 -2.0625 7.6875 C-1.88847656 6.88699219 -1.71445312 6.08648437 -1.53515625 5.26171875 C-1 3 -1 3 0 0 Z " fill="#C59282" transform="translate(44,19)"/>
<path d="M0 0 C0.33 0.99 0.66 1.98 1 3 C1.99 3.33 2.98 3.66 4 4 C4 5.65 4 7.3 4 9 C3.01 9 2.02 9 1 9 C0.67 7.68 0.34 6.36 0 5 C-1.32 5 -2.64 5 -4 5 C-4.33 6.65 -4.66 8.3 -5 10 C-5.33 10 -5.66 10 -6 10 C-6 8.02 -6 6.04 -6 4 C-5.34 4 -4.68 4 -4 4 C-4 3.01 -4 2.02 -4 1 C-3.34 1 -2.68 1 -2 1 C-2 1.99 -2 2.98 -2 4 C-1.34 4 -0.68 4 0 4 C0 2.68 0 1.36 0 0 Z " fill="#BD928F" transform="translate(61,61)"/>
<path d="M0 0 C-0.33 1.65 -0.66 3.3 -1 5 C-3.375 5.625 -3.375 5.625 -6 6 C-6.66 5.34 -7.32 4.68 -8 4 C-8 2.68 -8 1.36 -8 0 C-4.71303767 -0.79953138 -3.28976808 -1.09658936 0 0 Z " fill="#FAA5AD" transform="translate(24,16)"/>
<path d="M0 0 C2.475 0.99 2.475 0.99 5 2 C5 2.99 5 3.98 5 5 C2.36 5.33 -0.28 5.66 -3 6 C-3 5.34 -3 4.68 -3 4 C-4.98 4.99 -4.98 4.99 -7 6 C-7.66 5.34 -8.32 4.68 -9 4 C-7.875 2.5 -7.875 2.5 -6 1 C-2.8125 0.8125 -2.8125 0.8125 0 1 C0 0.67 0 0.34 0 0 Z " fill="#D5C6D2" transform="translate(24,51)"/>
<path d="M0 0 C4.55737263 0.43820891 7.57653445 0.85041169 11 4 C10.01 4.99 9.02 5.98 8 7 C7.278125 6.525625 6.55625 6.05125 5.8125 5.5625 C3.10524774 4.05847097 1.03805725 3.43400818 -2 3 C-1.34 2.01 -0.68 1.02 0 0 Z " fill="#F6E3C8" transform="translate(54,1)"/>
<path d="M0 0 C0.66 0 1.32 0 2 0 C2 0.66 2 1.32 2 2 C2.99 2 3.98 2 5 2 C5 3.98 5 5.96 5 8 C5.99 8.33 6.98 8.66 8 9 C6.68 9.33 5.36 9.66 4 10 C4 9.34 4 8.68 4 8 C2.35 7.67 0.7 7.34 -1 7 C-1 6.01 -1 5.02 -1 4 C-0.01 3.67 0.98 3.34 2 3 C0.68 2.67 -0.64 2.34 -2 2 C-1.34 2 -0.68 2 0 2 C0 1.34 0 0.68 0 0 Z " fill="#DBCCC1" transform="translate(32,57)"/>
<path d="M0 0 C0.66 0.99 1.32 1.98 2 3 C1.31292969 3.06058594 0.62585937 3.12117188 -0.08203125 3.18359375 C-1.43361328 3.30927734 -1.43361328 3.30927734 -2.8125 3.4375 C-3.70582031 3.51871094 -4.59914063 3.59992187 -5.51953125 3.68359375 C-8.12743559 3.93489767 -8.12743559 3.93489767 -11 5 C-11 3.68 -11 2.36 -11 1 C-7.26888555 0.12209072 -3.83204782 -0.34062647 0 0 Z " fill="#FBF9FA" transform="translate(24,47)"/>
<path d="M0 0 C1.32 0 2.64 0 4 0 C3.34 3.96 2.68 7.92 2 12 C1.34 12 0.68 12 0 12 C-0.19401633 10.18818595 -0.38004375 8.37551468 -0.5625 6.5625 C-0.66691406 5.55316406 -0.77132812 4.54382812 -0.87890625 3.50390625 C-0.91886719 2.67761719 -0.95882812 1.85132813 -1 1 C-0.67 0.67 -0.34 0.34 0 0 Z " fill="#D3C0CB" transform="translate(66,58)"/>
<path d="M0 0 C0.33 0 0.66 0 1 0 C1 1.65 1 3.3 1 5 C4.3 5 7.6 5 11 5 C7.09567131 6.95216435 4.27786748 7.50639991 0 8 C-0.33 9.65 -0.66 11.3 -1 13 C-1.66 12.67 -2.32 12.34 -3 12 C-3 10.35 -3 8.7 -3 7 C-2.01 6.67 -1.02 6.34 0 6 C0 4.02 0 2.04 0 0 Z " fill="#E7D4CB" transform="translate(43,53)"/>
<path d="M0 0 C0.66 0.33 1.32 0.66 2 1 C2 2.32 2 3.64 2 5 C0.02 5 -1.96 5 -4 5 C-4 5.66 -4 6.32 -4 7 C-2.68 7.33 -1.36 7.66 0 8 C-1.32 8 -2.64 8 -4 8 C-4 8.66 -4 9.32 -4 10 C-4.66 10 -5.32 10 -6 10 C-5.67 8.35 -5.34 6.7 -5 5 C-5.66 4.67 -6.32 4.34 -7 4 C-1.7265625 0.77734375 -1.7265625 0.77734375 0 0 Z " fill="#BF8C8A" transform="translate(59,40)"/>
<path d="M0 0 C0.99 0.33 1.98 0.66 3 1 C3 1.66 3 2.32 3 3 C3.5775 3.226875 4.155 3.45375 4.75 3.6875 C7.5663661 5.33038023 9.08077114 7.39533227 11 10 C7.44849408 9.69558521 6.02861198 9.02406007 3.25 6.6875 C1.21365935 4.25520422 0.3422216 3.07999437 0 0 Z " fill="#F7E5DD" transform="translate(44,31)"/>
<path d="M0 0 C0.33 0 0.66 0 1 0 C1 1.98 1 3.96 1 6 C1.66 6 2.32 6 3 6 C3.66 7.65 4.32 9.3 5 11 C2.69 11 0.38 11 -2 11 C-1.855625 10.29875 -1.71125 9.5975 -1.5625 8.875 C-0.98521625 5.92443859 -0.48304859 2.96729849 0 0 Z " fill="#ECD6CC" transform="translate(25,61)"/>
<path d="M0 0 C0.33 0 0.66 0 1 0 C1.66 3.63 2.32 7.26 3 11 C1.02 11.33 -0.96 11.66 -3 12 C-3.33 10.35 -3.66 8.7 -4 7 C-3.01 6.67 -2.02 6.34 -1 6 C-0.67 4.02 -0.34 2.04 0 0 Z " fill="#E7B6A8" transform="translate(41,37)"/>
<path d="M0 0 C0.33 1.32 0.66 2.64 1 4 C1.99 4 2.98 4 4 4 C4.66 4.66 5.32 5.32 6 6 C6.66 6 7.32 6 8 6 C8 7.65 8 9.3 8 11 C6.68 11 5.36 11 4 11 C3.34 9.35 2.68 7.7 2 6 C1.34 6 0.68 6 0 6 C0 4.02 0 2.04 0 0 Z " fill="#F3E5D7" transform="translate(26,61)"/>
<path d="M0 0 C0.66 0.33 1.32 0.66 2 1 C1.67 1.33 1.34 1.66 1 2 C1.99 2.33 2.98 2.66 4 3 C4.33 2.34 4.66 1.68 5 1 C5 2.65 5 4.3 5 6 C5.66 6.33 6.32 6.66 7 7 C6.34 7 5.68 7 5 7 C5 7.66 5 8.32 5 9 C3.68 8.67 2.36 8.34 1 8 C1.33 7.67 1.66 7.34 2 7 C1.484375 6.5875 0.96875 6.175 0.4375 5.75 C-0.036875 5.1725 -0.51125 4.595 -1 4 C-0.6875 1.8125 -0.6875 1.8125 0 0 Z " fill="#EBC7B2" transform="translate(36,27)"/>
<path d="M0 0 C0.99 0.33 1.98 0.66 3 1 C3.12375 1.94875 3.2475 2.8975 3.375 3.875 C3.71687177 7.08667191 3.71687177 7.08667191 6 9 C4.35 9.33 2.7 9.66 1 10 C0.67 8.02 0.34 6.04 0 4 C-1.98 4.99 -1.98 4.99 -4 6 C-3.6875 4.125 -3.6875 4.125 -3 2 C-2.01 1.34 -1.02 0.68 0 0 Z " fill="#F6CBB0" transform="translate(50,6)"/>
<path d="M0 0 C0.99 0.33 1.98 0.66 3 1 C2.01 1.33 1.02 1.66 0 2 C0 2.66 0 3.32 0 4 C1.32 4 2.64 4 4 4 C4.33 4.99 4.66 5.98 5 7 C-0.75 7.125 -0.75 7.125 -3 6 C-3 4.68 -3 3.36 -3 2 C-2.01 1.34 -1.02 0.68 0 0 Z " fill="#DECDCF" transform="translate(37,50)"/>
<path d="M0 0 C1.2380014 3.57644848 0.74926071 6.33694766 0 10 C-1.175625 10.2165625 -1.175625 10.2165625 -2.375 10.4375 C-4.96421018 10.87798925 -4.96421018 10.87798925 -7 12 C-6.34 9.69 -5.68 7.38 -5 5 C-4.01 5.33 -3.02 5.66 -2 6 C-1.34 4.02 -0.68 2.04 0 0 Z " fill="#F9F5DB" transform="translate(44,12)"/>
<path d="M0 0 C1.32 0 2.64 0 4 0 C4.33 1.32 4.66 2.64 5 4 C4.34 4 3.68 4 3 4 C3 4.66 3 5.32 3 6 C1.02 6 -0.96 6 -3 6 C-2 3 -2 3 0 0 Z " fill="#D6B3AC" transform="translate(57,66)"/>
<path d="M0 0 C0.33 0 0.66 0 1 0 C1 1.65 1 3.3 1 5 C3.86724686 4.42655063 4.8614515 4.1385485 7 2 C7.33 3.65 7.66 5.3 8 7 C6.02253397 7.73080266 4.01927511 8.39421747 2 9 C1.34 8.67 0.68 8.34 0 8 C0 5.36 0 2.72 0 0 Z " fill="#D7A69D" transform="translate(56,16)"/>
<path d="M0 0 C1.32 0.33 2.64 0.66 4 1 C4 4.3 4 7.6 4 11 C3.67 11 3.34 11 3 11 C3 9.35 3 7.7 3 6 C2.01 6.33 1.02 6.66 0 7 C-0.66 5.68 -1.32 4.36 -2 3 C-1.01 3.495 -1.01 3.495 0 4 C0 2.68 0 1.36 0 0 Z " fill="#E8AC9B" transform="translate(68,9)"/>
<path d="M0 0 C0 1.65 0 3.3 0 5 C-3.375 5.625 -3.375 5.625 -7 6 C-7.66 5.34 -8.32 4.68 -9 4 C-2.25 0 -2.25 0 0 0 Z " fill="#E38C7E" transform="translate(72,53)"/>
<path d="M0 0 C0.66 0.33 1.32 0.66 2 1 C2 2.65 2 4.3 2 6 C0.02 6 -1.96 6 -4 6 C-4.33 5.34 -4.66 4.68 -5 4 C-4.34 4 -3.68 4 -3 4 C-2.67 3.01 -2.34 2.02 -2 1 C-1.34 0.67 -0.68 0.34 0 0 Z " fill="#F5E6DF" transform="translate(40,65)"/>
<path d="M0 0 C2.97 0 5.94 0 9 0 C8.34 0.66 7.68 1.32 7 2 C6.35232207 4.57061311 6.35232207 4.57061311 6 7 C5.01 7 4.02 7 3 7 C3 5.02 3 3.04 3 1 C2.01 0.67 1.02 0.34 0 0 Z " fill="#E98D28" transform="translate(34,58)"/>
<path d="M0 0 C0.33 0.66 0.66 1.32 1 2 C1.66 2.33 2.32 2.66 3 3 C2.01 4.485 2.01 4.485 1 6 C0.34 6 -0.32 6 -1 6 C-1 6.66 -1 7.32 -1 8 C-1.66 8 -2.32 8 -3 8 C-3.75 6.25 -3.75 6.25 -4 4 C-2.0625 1.75 -2.0625 1.75 0 0 Z " fill="#CCBBC1" transform="translate(35,46)"/>
<path d="M0 0 C2.31 0.33 4.62 0.66 7 1 C7.33 2.32 7.66 3.64 8 5 C5.98177083 4.70703125 3.96354167 4.4140625 1.9453125 4.12109375 C-0.08140667 3.8315703 -0.08140667 3.8315703 -2 5 C-1.34 3.35 -0.68 1.7 0 0 Z " fill="#EBAC96" transform="translate(50,3)"/>
<path d="M0 0 C0.625 1.8125 0.625 1.8125 1 4 C0.01 5.485 0.01 5.485 -1 7 C-3.625 7.1875 -3.625 7.1875 -6 7 C-5.34 5.02 -4.68 3.04 -4 1 C-3.01 1.33 -2.02 1.66 -1 2 C-0.67 1.34 -0.34 0.68 0 0 Z " fill="#F3F0F1" transform="translate(9,57)"/>
<path d="M0 0 C0 2.97 0 5.94 0 9 C-1.65 9 -3.3 9 -5 9 C-4.66666667 7.66666667 -4.33333333 6.33333333 -4 5 C-3.855625 4.278125 -3.71125 3.55625 -3.5625 2.8125 C-3.376875 2.214375 -3.19125 1.61625 -3 1 C-1 0 -1 0 0 0 Z " fill="#D59580" transform="translate(72,34)"/>
<path d="M0 0 C1.65 0.33 3.3 0.66 5 1 C4.67 2.32 4.34 3.64 4 5 C2.35 5 0.7 5 -1 5 C-0.67 3.35 -0.34 1.7 0 0 Z " fill="#EC840F" transform="translate(43,60)"/>
<path d="M0 0 C0.66 0 1.32 0 2 0 C2.66 2.31 3.32 4.62 4 7 C0.93109813 8.53445094 -1.70094266 7.54984289 -5 7 C-5 6.34 -5 5.68 -5 5 C-3.02 5 -1.04 5 1 5 C0.67 3.35 0.34 1.7 0 0 Z " fill="#6C423D" transform="translate(60,40)"/>
<path d="M0 0 C3 2 3 2 4 5 C3.01 5.33 2.02 5.66 1 6 C0.34 6.99 -0.32 7.98 -1 9 C-1.33 6.36 -1.66 3.72 -2 1 C-1.34 0.67 -0.68 0.34 0 0 Z " fill="#CE8E80" transform="translate(43,33)"/>
<path d="M0 0 C1.65 0.33 3.3 0.66 5 1 C4.67 2.65 4.34 4.3 4 6 C2.02 6.33 0.04 6.66 -2 7 C-1.01 6.67 -0.02 6.34 1 6 C0.67 4.02 0.34 2.04 0 0 Z " fill="#EFCEC5" transform="translate(56,50)"/>
<path d="M0 0 C1.65 0.99 3.3 1.98 5 3 C4.34 4.32 3.68 5.64 3 7 C0.69 7 -1.62 7 -4 7 C-4 6.67 -4 6.34 -4 6 C-2.35 6 -0.7 6 1 6 C0.34 4.35 -0.32 2.7 -1 1 C-0.67 0.67 -0.34 0.34 0 0 Z " fill="#D3857E" transform="translate(43,42)"/>
<path d="M0 0 C1.32 0.33 2.64 0.66 4 1 C4.12375 1.639375 4.2475 2.27875 4.375 2.9375 C4.684375 3.9584375 4.684375 3.9584375 5 5 C5.66 5.33 6.32 5.66 7 6 C7 6.66 7 7.32 7 8 C5.02 8 3.04 8 1 8 C1.50603992 5.83125748 1.99983813 4.00032373 3 2 C2.01 2 1.02 2 0 2 C0 1.34 0 0.68 0 0 Z " fill="#97645D" transform="translate(47,39)"/>
<path d="M0 0 C0.66 0.99 1.32 1.98 2 3 C2.99 2.34 3.98 1.68 5 1 C5 3.31 5 5.62 5 8 C3.68 8 2.36 8 1 8 C1 6.68 1 5.36 1 4 C0.34 4 -0.32 4 -1 4 C-0.67 2.68 -0.34 1.36 0 0 Z " fill="#E3AD9C" transform="translate(50,19)"/>
<path d="M0 0 C1.65 0 3.3 0 5 0 C5.33 1.98 5.66 3.96 6 6 C3.69 5.01 1.38 4.02 -1 3 C-0.67 2.01 -0.34 1.02 0 0 Z " fill="#EDA69E" transform="translate(60,28)"/>
<path d="M0 0 C1.32 0 2.64 0 4 0 C4.33 1.65 4.66 3.3 5 5 C3.02 5 1.04 5 -1 5 C-0.67 3.35 -0.34 1.7 0 0 Z " fill="#E28116" transform="translate(50,60)"/>
<path d="M0 0 C0.99 0.66 1.98 1.32 3 2 C1.68 2.33 0.36 2.66 -1 3 C-1.12375 3.804375 -1.2475 4.60875 -1.375 5.4375 C-1.58125 6.283125 -1.7875 7.12875 -2 8 C-2.99 8.495 -2.99 8.495 -4 9 C-4.33 7.68 -4.66 6.36 -5 5 C-4.34 5 -3.68 5 -3 5 C-2.87625 4.360625 -2.7525 3.72125 -2.625 3.0625 C-2.41875 2.381875 -2.2125 1.70125 -2 1 C-1.34 0.67 -0.68 0.34 0 0 Z " fill="#D7CAD3" transform="translate(6,54)"/>
<path d="M0 0 C2.97 0.33 5.94 0.66 9 1 C8.34 2.32 7.68 3.64 7 5 C4.625 4.75 4.625 4.75 2 4 C1.34 2.68 0.68 1.36 0 0 Z " fill="#AB988E" transform="translate(14,32)"/>
<path d="M0 0 C0.33 0 0.66 0 1 0 C1 2.64 1 5.28 1 8 C1.66 8.33 2.32 8.66 3 9 C2.01 9.33 1.02 9.66 0 10 C-0.33 8.35 -0.66 6.7 -1 5 C-1.66 6.32 -2.32 7.64 -3 9 C-3 6.69 -3 4.38 -3 2 C-2.34 2 -1.68 2 -1 2 C-0.67 1.34 -0.34 0.68 0 0 Z " fill="#F0B8A4" transform="translate(55,16)"/>
<path d="M0 0 C2 2 2 2 2 5 C1.01 5 0.02 5 -1 5 C-1 5.66 -1 6.32 -1 7 C-1.99 6.67 -2.98 6.34 -4 6 C-3.34 6 -2.68 6 -2 6 C-2.33 4.68 -2.66 3.36 -3 2 C-2.01 1.34 -1.02 0.68 0 0 Z " fill="#F6E2D8" transform="translate(55,51)"/>
<path d="M0 0 C1.65 0.33 3.3 0.66 5 1 C4.01 2.98 3.02 4.96 2 7 C0.68 6.34 -0.64 5.68 -2 5 C-1.34 4.34 -0.68 3.68 0 3 C0 2.01 0 1.02 0 0 Z " fill="#E5DAE3" transform="translate(28,47)"/>
<path d="M0 0 C1.32 0.66 2.64 1.32 4 2 C2.8125 4 2.8125 4 1 6 C-1.6875 6.25 -1.6875 6.25 -4 6 C-4.33 5.34 -4.66 4.68 -5 4 C-3.02 3.34 -1.04 2.68 1 2 C0.67 1.34 0.34 0.68 0 0 Z " fill="#EEE5E9" transform="translate(24,47)"/>
<path d="M0 0 C2.39036607 3.5855491 3 6.7085077 3 11 C2.34 11 1.68 11 1 11 C-1.42857143 3.57142857 -1.42857143 3.57142857 0 0 Z " fill="#BF6454" transform="translate(65,34)"/>
<path d="M0 0 C0.33 0 0.66 0 1 0 C1.33 3.3 1.66 6.6 2 10 C1.01 9.34 0.02 8.68 -1 8 C-0.67 6.68 -0.34 5.36 0 4 C-0.99 4.33 -1.98 4.66 -3 5 C-3 4.01 -3 3.02 -3 2 C-2.34 2 -1.68 2 -1 2 C-0.67 1.34 -0.34 0.68 0 0 Z " fill="#D78371" transform="translate(70,15)"/>
<path d="M0 0 C1.65 0 3.3 0 5 0 C5 1.32 5 2.64 5 4 C3.35 3.67 1.7 3.34 0 3 C0 2.01 0 1.02 0 0 Z " fill="#FA979F" transform="translate(17,18)"/>
<path d="M0 0 C1.65 0 3.3 0 5 0 C4.67 1.65 4.34 3.3 4 5 C1.03 4.505 1.03 4.505 -2 4 C-1.34 2.68 -0.68 1.36 0 0 Z " fill="#F6EAE0" transform="translate(47,48)"/>
<path d="M0 0 C-0.33 1.65 -0.66 3.3 -1 5 C-2.32 4.67 -3.64 4.34 -5 4 C-5 3.01 -5 2.02 -5 1 C-2 0 -2 0 0 0 Z " fill="#F6A5AC" transform="translate(31,20)"/>
<path d="M0 0 C0.99 0 1.98 0 3 0 C3.33 1.65 3.66 3.3 4 5 C1.69 5 -0.62 5 -3 5 C-2.01 4.34 -1.02 3.68 0 3 C0 2.01 0 1.02 0 0 Z " fill="#FAF0E7" transform="translate(49,67)"/>
<path d="M0 0 C4.455 0.99 4.455 0.99 9 2 C7.68 2.33 6.36 2.66 5 3 C5 3.99 5 4.98 5 6 C3.31237149 4.3545622 1.6459651 2.68711423 0 1 C0 0.67 0 0.34 0 0 Z " fill="#F8F5F7" transform="translate(24,45)"/>
<path d="M0 0 C0.33 0 0.66 0 1 0 C1 2.97 1 5.94 1 9 C0.01 9.495 0.01 9.495 -1 10 C-1.66 8.68 -2.32 7.36 -3 6 C-2.01 5.67 -1.02 5.34 0 5 C-0.33 4.01 -0.66 3.02 -1 2 C-0.67 1.34 -0.34 0.68 0 0 Z " fill="#AE4A43" transform="translate(70,22)"/>
<path d="M0 0 C2.31 0.33 4.62 0.66 7 1 C3.5647952 3.29013653 2.014669 3.17842973 -2 3 C-1.34 2.01 -0.68 1.02 0 0 Z " fill="#843D41" transform="translate(60,23)"/>
<path d="M0 0 C2.625 -0.1875 2.625 -0.1875 5 0 C5 0.99 5 1.98 5 3 C2.69 3 0.38 3 -2 3 C-1.34 2.01 -0.68 1.02 0 0 Z " fill="#F5EBD0" transform="translate(54,1)"/>
<path d="M0 0 C0 1.32 0 2.64 0 4 C-2.4375 3.625 -2.4375 3.625 -5 3 C-5.33 2.34 -5.66 1.68 -6 1 C-3 0 -3 0 0 0 Z " fill="#FCF5F3" transform="translate(23,68)"/>
<path d="M0 0 C1.4540625 0.0309375 1.4540625 0.0309375 2.9375 0.0625 C2.298125 0.289375 1.65875 0.51625 1 0.75 C-1.33443661 1.91500896 -1.33443661 1.91500896 -1.8125 4.6875 C-1.895 5.47125 -1.9775 6.255 -2.0625 7.0625 C-2.7225 6.7325 -3.3825 6.4025 -4.0625 6.0625 C-4.105221 4.39638095 -4.10313832 2.72867115 -4.0625 1.0625 C-3.0625 0.0625 -3.0625 0.0625 0 0 Z " fill="#C5AEA1" transform="translate(44.0625,58.9375)"/>
<path d="M0 0 C0.99 0 1.98 0 3 0 C2.67 2.31 2.34 4.62 2 7 C0.68 5.68 -0.64 4.36 -2 3 C-1 1 -1 1 0 0 Z " fill="#E0DAD5" transform="translate(33,41)"/>
<path d="M0 0 C1.98 0.99 1.98 0.99 4 2 C4.99 1.34 5.98 0.68 7 0 C6.6875 1.9375 6.6875 1.9375 6 4 C5.01 4.33 4.02 4.66 3 5 C2.01 4.34 1.02 3.68 0 3 C0 2.01 0 1.02 0 0 Z " fill="#F7D4B6" transform="translate(58,5)"/>
</svg>
